<?xml version="1.0" encoding="utf-8"?>
<!-- Generator: Adobe Illustrator 16.0.0, SVG Export Plug-In . SVG Version: 6.00 Build 0)  -->
<!DOCTYPE svg PUBLIC "-//W3C//DTD SVG 1.1//EN" "http://www.w3.org/Graphics/SVG/1.1/DTD/svg11.dtd">
<svg version="1.1" id="Layer_1" xmlns="http://www.w3.org/2000/svg" xmlns:xlink="http://www.w3.org/1999/xlink" x="0px" y="0px"
	 width="300px" height="75.5px" viewBox="0 0 300 75.5" enable-background="new 0 0 300 75.5" xml:space="preserve">
<g>
	<path fill="#FFFFFF" d="M24.551,46.674L36.887,0.78h7.693v45.894L57.208,0.78h4.113l-16.33,55.869h-8.692v-38.17l-11.631,38.17
		h-8.633V5.43C9.631,7.979,6.52,13.829,6.52,22.079c0,3.822,0.763,4.423,0.822,5.099c-4.053,0-6.287-1.875-6.287-7.275
		c0-9.972,10.809-19.498,20.618-19.498c0.823,0,1.585,0.076,2.349,0.149L24.551,46.674z"/>
	<path fill="#FFFFFF" d="M69.397,50.799c4.642,0,7.461-3.301,10.397-7.575h1.997c-3.348,6.9-8.341,13.874-16.153,13.874
		c-5.52,0-9.162-3.447-9.162-11.922c0-8.625,3.816-26.697,15.859-26.697c5.228,0,6.459,3.451,6.459,7.2
		c0,8.622-6.459,15.296-13.509,15.821c-0.057,1.05-0.117,2.101-0.117,3.001C65.169,49.599,66.578,50.799,69.397,50.799z
		 M72.805,22.454c-2.997,0-5.874,8.023-7.047,15.446c4.521-0.373,8.515-6.149,8.515-12.372
		C74.273,23.651,73.921,22.454,72.805,22.454z"/>
	<path fill="#FFFFFF" d="M108,19.153l-4.228,25.497c-0.177,0.975-0.236,1.725-0.236,2.398c0,2.102,0.765,3.226,2.408,3.226
		c2.291,0,3.876-3.302,4.758-7.051h2.468c-3.35,12.226-8.635,13.874-11.809,13.874c-3.288,0-5.401-2.4-5.755-6.896
		c-1.82,3.449-4.583,6.896-8.75,6.896c-3.996,0-7.812-3.147-7.812-12.072c0-10.124,4.874-26.248,15.094-26.248
		c3.348,0,4.759,1.649,4.759,3.826v0.525l0.646-3.976H108z M87.736,43.975c0,5.774,1.879,5.851,2.937,5.851
		c1.702,0,4.17-2.251,4.875-6.602l2.819-16.948c0-0.9-0.528-2.848-2.408-2.848C90.967,23.428,87.736,36.925,87.736,43.975z"/>
	<path fill="#FFFFFF" d="M125.167,7.305l-1.997,11.849h3.525l-0.469,2.999h-3.525l-3.759,22.499
		c-0.177,0.975-0.234,1.725-0.234,2.398c0,2.102,0.763,2.776,2.409,2.776c2.288,0,4.405-2.853,5.285-6.602h2.468
		c-3.348,12.226-9.164,13.874-12.334,13.874c-3.525,0-6.287-2.699-6.287-8.997c0-1.427,0.177-3.075,0.471-4.877l3.524-21.072h-1.939
		l0.472-2.999h1.937l1.762-10.35L125.167,7.305z"/>
	<path fill="#FFFFFF" d="M141.153,25.678c-2.291,0-4.111,4.573-4.464,6.598l-4.051,24.373h-8.458l8.516-50.993l8.692-1.501
		l-3.171,18.898c2.469-3.599,5.051-4.201,6.873-4.201c3.759,0,6.52,2.476,6.52,8.476c0,6.075-2.82,15.149-2.82,19.347
		c0,1.875,0.588,3.151,2.35,3.151c2.586,0,3.643-2.698,4.934-6.602h2.468c-3.29,12.302-7.812,13.874-10.925,13.874
		c-5.11,0-6.93-4.198-6.93-8.472c0-5.099,2.642-14.326,2.642-19.125C143.327,27.027,142.622,25.678,141.153,25.678z"/>
	<path fill="#FFFFFF" d="M168.248,50.799c4.641,0,7.46-3.301,10.396-7.575h1.996c-3.348,6.9-8.341,13.874-16.152,13.874
		c-5.52,0-9.162-3.447-9.162-11.922c0-8.625,3.817-26.697,15.859-26.697c5.228,0,6.459,3.451,6.459,7.2
		c0,8.622-6.459,15.296-13.508,15.821c-0.061,1.05-0.118,2.101-0.118,3.001C164.019,49.599,165.428,50.799,168.248,50.799z
		 M171.654,22.454c-2.996,0-5.873,8.023-7.047,15.446c4.521-0.373,8.516-6.149,8.516-12.372
		C173.123,23.651,172.771,22.454,171.654,22.454z"/>
	<path fill="#FFFFFF" d="M191.108,19.153l-0.764,4.65c2.057-2.25,4.288-4.65,7.107-4.65c2.642,0,4.053,2.776,4.053,5.624
		c0,2.626-1.352,5.474-4.23,5.474c-3.288,0-1.643-4.949-3.404-4.949c-1.763,0-2.819,1.123-4.287,2.848l-4.699,28.498h-8.459
		l6.225-37.495H191.108z"/>
	<path fill="#FFFFFF" d="M222.99,16.977c-1.056,0-1.939-0.449-2.701-1.573c1.586-1.2,2.643-3.975,2.643-6.451
		c0-2.623-1.115-5.023-4.345-5.023c-3.231,0-5.405,2.324-5.405,6.824c0,11.021,13.217,12.523,13.217,28.72
		c0,12.6-7.989,18.75-16.506,18.75c-6.697,0-12.453-3.749-12.453-12.9c0-8.1,4.525-12.297,8.636-12.297
		c2.057,0,4.993,1.05,5.167,4.95c-3.17,0-6.87,1.874-6.87,7.049c0,3.749,1.881,7.199,5.64,7.199c3.934,0,6.812-3.676,6.812-9.975
		c0-12.822-12.042-17.396-12.042-28.421c0-7.8,5.992-13.424,13.568-13.424c2.762,0,9.458,0.751,9.458,9
		C227.808,13.752,225.928,16.977,222.99,16.977z"/>
	<path fill="#FFFFFF" d="M242.275,16.378l-0.94,5.625c1.702-1.875,3.934-3.225,6.873-3.225c3.994,0,7.163,2.925,7.163,11.849
		c0,10.124-3.053,26.471-14.447,26.471c-2.937,0-4.348-1.273-4.993-2.699l-3.055,18.297l-8.868,2.702l9.809-59.02H242.275z
		 M247.325,30.401c0-5.773-1.88-6.226-2.937-6.226c-1.291,0-2.938,1.276-4.053,3.676l-3.466,21c0.234,0.823,0.88,1.722,2.231,1.722
		C245.269,50.573,247.325,37.451,247.325,30.401z"/>
	<path fill="#FFFFFF" d="M279.644,30.478c0.234,0.149,0.471,0.149,0.646,0.149c2.702,0,6.521-2.25,9.045-4.5l0.529,2.024
		c-2.231,3.075-6.107,5.325-10.395,6.226c-0.939,13.873-6.816,22.571-14.04,22.571c-5.461,0-9.398-3.297-9.398-11.85
		c0-8.621,3.993-26.619,16.094-26.619C277.179,18.479,279.644,22.604,279.644,30.478z M274.593,34.603
		c-1.233-0.376-1.585-1.652-1.585-3.151c0-2.1,0.763-3.45,1.82-4.048c-0.117-3.151-0.705-4.351-2.231-4.351
		c-4.171,0-7.812,13.724-7.812,21.073c0,4.948,0.764,6.076,2.996,6.076C270.657,50.201,273.653,43.449,274.593,34.603z"/>
	<path fill="#FFFFFF" d="M291.112,44.65c-0.176,0.9-0.294,1.801-0.294,2.625c0,1.576,0.472,2.699,2.058,2.699
		c0.41,0,1.056,0,1.527-0.226c-1.646,6.451-4.23,7.349-6.228,7.349c-4.113,0-5.873-3.673-5.873-8.472
		c0-1.276,0.118-2.626,0.353-3.976l3.758-22.499h-1.938l0.471-2.999h1.939l1.76-10.35l8.695-1.499c0,0-0.883,5.099-2,11.849h3.525
		l-0.469,2.999h-3.524L291.112,44.65z"/>
</g>
</svg>
