<?xml version="1.0" encoding="utf-8"?>
<!-- Generator: Adobe Illustrator 18.1.1, SVG Export Plug-In . SVG Version: 6.00 Build 0)  -->
<svg version="1.1" id="Layer_1" xmlns="http://www.w3.org/2000/svg" xmlns:xlink="http://www.w3.org/1999/xlink" x="0px" y="0px"
	 viewBox="0 0 99.4 99.4" enable-background="new 0 0 99.4 99.4" xml:space="preserve">
<g>
	<circle fill="#539DB9" cx="49.7" cy="49.7" r="49.7"/>
	<g>
		<path fill="#FFFFFF" d="M32.9,62.9l9.5-35.2h5.9v35.2L58,27.7h3.2L48.6,70.5h-6.7V41.2L33,70.5h-6.6V31.2c-4.9,2-7.3,6.4-7.3,12.8
			c0,2.9,0.6,3.4,0.6,3.9c-3.1,0-4.8-1.4-4.8-5.6c0-7.6,8.3-15,15.8-15c0.6,0,1.2,0.1,1.8,0.1L32.9,62.9z"/>
		<path fill="#FFFFFF" d="M76,40.2c-0.8,0-1.4-0.3-2-1.2c1.2-0.9,1.9-2.9,1.9-4.7c0-1.9-0.8-3.7-3.2-3.7c-2.4,0-4,1.7-4,5
			c0,8.1,9.7,9.2,9.7,21.1c0,9.2-5.9,13.8-12.1,13.8c-4.9,0-9.1-2.8-9.1-9.5c0-5.9,3.3-9,6.3-9c1.5,0,3.7,0.8,3.8,3.6
			c-2.3,0-5,1.4-5,5.2c0,2.8,1.4,5.3,4.1,5.3c2.9,0,5-2.7,5-7.3c0-9.4-8.8-12.8-8.8-20.9c0-5.7,4.4-9.9,10-9.9c2,0,6.9,0.6,6.9,6.6
			C79.6,37.9,78.2,40.2,76,40.2z"/>
	</g>
</g>
</svg>
